<?xml version="1.0" encoding="UTF-8"?>
<!-- Generated by Pixelmator Pro 3.5.11 -->
<svg width="935" height="935" viewBox="0 0 935 935" xmlns="http://www.w3.org/2000/svg">
    <g id="Group-copy">
        <path id="Polygon" fill="#ff2929" fill-rule="evenodd" stroke="#000000" stroke-width="8.685968" stroke-linecap="round" stroke-linejoin="round" d="M 199.616837 53.270691 L 19.420856 241.396301 L 91.825279 493.199524 L 344.42569 556.877197 L 524.621704 368.751648 L 452.217255 116.948425 Z"/>
        <path id="Triangle" fill="none" stroke="#000000" stroke-width="8.685968" stroke-linecap="round" stroke-linejoin="round" d="M 220.241272 120.806091 L 147.203735 438.853973 L 451.060791 351.481812 Z M 199.20903 53.947876 L 220.004807 122.079163 L 452.018341 118.028076 L 450.900757 350.925293 L 523.868347 367.903198 M 146.723663 437.184418 L 345.538727 556.557129 L 451.060791 351.481812 M 220.004807 122.079163 L 19.446348 241.808899 L 146.487198 438.457489 L 91.616402 492.797028"/>
    </g>
    <g id="Group-copy-2">
        <path id="path1" fill="#ff2929" fill-rule="evenodd" stroke="#000000" stroke-width="8.685968" stroke-linecap="round" stroke-linejoin="round" d="M 764.124695 387.378906 L 505.838776 421.293457 L 404.684357 662.985535 L 561.815857 870.763062 L 820.101807 836.848511 L 921.256226 595.156494 Z"/>
        <path id="path2" fill="none" stroke="#000000" stroke-width="8.685968" stroke-linecap="round" stroke-linejoin="round" d="M 737.934143 452.956757 L 481.889679 655.268799 L 773.545349 777.334229 Z M 763.382813 387.651733 L 736.952881 453.801514 L 920.425232 595.873901 L 773.768921 776.80011 L 820.04541 835.715332 M 482.560364 653.66626 L 562.884216 871.210205 L 773.545349 777.334229 M 736.952881 453.801514 L 505.600372 421.631165 L 481.579071 654.511047 L 404.773407 662.540894"/>
    </g>
</svg>
